PathFileType	4	(X/Y/Z)	C:\Users\Basilio\Documents\Thesis Gigler\squatting_fais\c3dfiles\054\SJ_pre2\markers_experimental.trc
DataRate	CameraRate	NumFrames	NumMarkers	Units	OrigDataRate	OrigDataStartFrame	OrigNumFrames
200.000000	200.000000	4	61	mm	200.000000	1833	2095
Frame#	Time	FHD			LBHD			RBHD			C7			T10			CLAV			LSHO			LUUPA			LMUPA			LDUPA			LLEP			LMEP			LRAD			LUL			LRFIN			RSHO			RUPA1			RMUPA			RDUPA			RLEP			RMEP			RRAD			RUL			RUFIN			LASI			RASI			USACR			LSACR			RSACR			LTHI1			LTHI2			LTHI3			LTHI4			LLFC			LMFC			LTIB1			LTIB2			LTIB3			LTIB4			LLMAL			LMMAL			LHEE			LMT1			LMT2			LMT5			RTHI			RTHI2			RTHI3			RTHI4			RLFC			RMFC			RTIB1			RTIB2			RTIB3			RTIB4			RLMAL			RMMAL			RHEE			RMT1			RMT2			RMT5			
		X1	Y1	Z1	X2	Y2	Z2	X3	Y3	Z3	X4	Y4	Z4	X5	Y5	Z5	X6	Y6	Z6	X7	Y7	Z7	X8	Y8	Z8	X9	Y9	Z9	X10	Y10	Z10	X11	Y11	Z11	X12	Y12	Z12	X13	Y13	Z13	X14	Y14	Z14	X15	Y15	Z15	X16	Y16	Z16	X17	Y17	Z17	X18	Y18	Z18	X19	Y19	Z19	X20	Y20	Z20	X21	Y21	Z21	X22	Y22	Z22	X23	Y23	Z23	X24	Y24	Z24	X25	Y25	Z25	X26	Y26	Z26	X27	Y27	Z27	X28	Y28	Z28	X29	Y29	Z29	X30	Y30	Z30	X31	Y31	Z31	X32	Y32	Z32	X33	Y33	Z33	X34	Y34	Z34	X35	Y35	Z35	X36	Y36	Z36	X37	Y37	Z37	X38	Y38	Z38	X39	Y39	Z39	X40	Y40	Z40	X41	Y41	Z41	X42	Y42	Z42	X43	Y43	Z43	X44	Y44	Z44	X45	Y45	Z45	X46	Y46	Z46	X47	Y47	Z47	X48	Y48	Z48	X49	Y49	Z49	X50	Y50	Z50	X51	Y51	Z51	X52	Y52	Z52	X53	Y53	Z53	X54	Y54	Z54	X55	Y55	Z55	X56	Y56	Z56	X57	Y57	Z57	X58	Y58	Z58	X59	Y59	Z59	X60	Y60	Z60	X61	Y61	Z61	

1834	9.165000000000001	32.52584838867188	1518.45947265625	-1020.961242675781	-110.1524734497071	1632.846069335938	-979.9886474609377	-34.89495849609376	1617.756103515625	-861.2669677734377	-235.7478179931641	1523.296020507813	-868.4934692382815	-398.8465270996095	1211.433959960938	-873.7830200195315	-134.8435516357422	1406.058837890625	-890.2469482421877	-189.6736450195313	1505.530395507813	-1028.129760742188	-343.5380554199219	1448.10498046875	-1189.447631835938	-319.0800170898438	1405.298461914063	-1209.401733398438	-374.5961303710938	1407.327758789063	-1237.305419921875	-393.4014587402345	1347.819091796875	-1266.401977539063	-461.9586181640626	1346.49365234375	-1208.1015625	-384.423797607422	1134.496704101563	-1107.499755859375	-364.4777221679688	1089.581787109375	-1165.994140625	-321.9191284179688	1125.5224609375	-1078.820922851563	-137.2361145019532	1483.8974609375	-725.1231079101564	-250.3841400146485	1375.549438476563	-534.3464965820314	-239.3545227050782	1327.2998046875	-534.9066772460939	-286.7869873046876	1328.263427734375	-497.6474609375001	-310.5095214843751	1284.214599609375	-481.7514953613282	-382.6663513183594	1302.927490234375	-528.3100585937501	-377.5955200195313	1077.550170898438	-656.2619628906251	-339.2708740234376	1036.1923828125	-600.1113281250001	-317.8086853027344	1074.910400390625	-688.9187011718751	-247.6468200683594	1011.972290039063	-1011.60400390625	-244.1372833251954	998.3017578125002	-753.9407348632814	-418.6588439941407	1110.351928710938	-873.6343383789065	-429.7082824707032	1079.7021484375	-902.0280761718752	-426.2754211425782	1077.0439453125	-845.1297607421877	-362.8575744628907	797.0364379882815	-1126.3466796875	-329.2429809570313	721.2469482421876	-1148.612426757813	-281.8493957519532	726.1204833984376	-1147.947021484375	-354.7214660644532	665.9988403320314	-1140.2861328125	-343.3818664550782	512.6799316406251	-1159.0263671875	-285.0226135253907	477.375457763672	-1039.52294921875	-297.8759155273438	345.5894775390626	-1164.291625976563	-363.9688110351563	313.1401977539063	-1214.859008789063	-319.1404724121094	305.4778747558594	-1203.79833984375	-318.3047180175782	222.4192352294922	-1188.526733398438	-392.0889282226564	93.75270843505861	-1244.17529296875	-333.9566955566407	95.30408477783205	-1164.57421875	-440.9900207519532	51.63115692138673	-1175.145141601563	-225.1376953125001	53.838436126709	-1231.746459960938	-235.4710998535157	59.0525245666504	-1280.08837890625	-299.6717224121094	38.71018981933594	-1315.533447265625	-379.6049499511719	726.0823974609376	-653.1468505859376	-345.4543762207032	673.5098876953126	-632.5814208984376	-312.7813415527344	674.4583129882814	-627.2486572265626	-367.9122314453126	593.0739135742189	-643.1524658203126	-377.5988769531251	504.0133666992189	-629.9781494140626	-292.0033264160157	484.1027832031251	-735.9744873046876	-331.4194641113282	396.6506347656251	-597.4401855468751	-414.9882202148439	331.9913635253907	-577.4926757812501	-369.5376892089844	322.5829162597657	-569.3540039062501	-351.9014587402344	268.7433166503907	-577.5302734375001	-428.1503906250001	95.84628295898439	-544.4750366210939	-362.6239929199219	97.16519165039065	-614.9435424804689	-469.0245361328126	49.10359573364259	-613.9132690429689	-253.2220306396485	51.684627532959	-543.0252075195314	-269.1536254882813	55.82015228271486	-498.166717529297	-331.8703308105469	36.08230209350587	-468.4775695800782	
1835	9.17	31.22599029541016	1518.57275390625	-1021.786071777344	-110.9919052124024	1632.87548828125	-980.6401367187502	-35.55723190307618	1617.924560546875	-862.1567382812502	-236.3178100585938	1523.410522460938	-869.0648193359377	-398.8824768066407	1211.249267578125	-873.6276855468752	-135.4893035888672	1406.245849609375	-890.7517700195315	-190.8428649902344	1505.359008789063	-1028.74267578125	-344.7599182128907	1447.40869140625	-1189.5390625	-320.0077209472657	1404.880126953125	-1209.517578125	-375.5671081542969	1406.290405273438	-1237.354736328125	-394.8141479492189	1346.992065429688	-1266.242553710938	-463.0987854003907	1345.636962890625	-1207.85986328125	-384.8312988281251	1133.758666992188	-1107.191772460938	-364.9474792480469	1088.821533203125	-1165.828979492188	-322.3160705566407	1124.925537109375	-1078.702270507813	-137.4077606201172	1484.036987304688	-725.6180419921876	-249.888900756836	1375.279052734375	-534.6604614257814	-239.1882934570313	1327.156860351563	-535.2089843750001	-286.3627929687501	1328.018920898438	-497.8658142089845	-309.8612060546876	1283.958862304688	-481.8902893066407	-381.7151184082032	1302.525634765625	-528.5017089843751	-377.0740966796876	1076.9248046875	-655.9769287109376	-338.5534362792969	1035.880859375	-600.0242309570314	-316.6260375976563	1074.7197265625	-688.6207885742189	-247.5021667480469	1011.808349609375	-1011.584167480469	-243.2787475585938	998.301696777344	-754.0970458984376	-418.5670776367189	1110.001831054688	-873.2683715820315	-429.5584106445314	1079.388549804688	-901.5728759765627	-426.0383605957032	1076.793701171875	-844.6654052734377	-363.4814758300782	797.098083496094	-1125.469970703125	-329.8130798339844	721.1200561523439	-1148.148559570313	-282.3769836425782	725.9050903320314	-1147.451782226563	-355.6765747070313	665.9856567382814	-1139.769165039063	-344.7590026855469	512.6626586914064	-1158.283813476563	-286.4540710449219	477.1489257812501	-1038.782348632813	-298.8114013671876	345.4041748046876	-1163.854125976563	-364.8775329589844	313.0636901855469	-1214.450927734375	-319.6959838867188	305.5809020996094	-1203.420654296875	-319.0704650878907	222.3579254150391	-1188.28662109375	-392.3513488769532	93.65130615234376	-1244.177978515625	-334.0219421386719	95.28489685058595	-1164.63134765625	-441.0208740234376	51.52672958374025	-1175.176879882813	-225.1806945800782	53.87237930297853	-1231.797241210938	-235.5535278320313	59.02315902709962	-1280.150268554688	-299.6690673828126	38.64778900146485	-1315.6259765625	-379.4261474609376	726.1847534179689	-653.3387451171876	-345.7902526855469	673.3346557617189	-632.9522094726564	-313.0642700195313	674.0681762695314	-627.6499633789064	-368.6900939941407	593.0635375976564	-643.6442871093751	-378.9234924316407	504.0224609375001	-630.7825317382814	-293.5394287109376	483.8887634277345	-736.9285888671876	-332.4969787597657	396.6335449218751	-598.3258056640626	-415.5722961425782	331.8608093261719	-577.9427490234376	-370.4799194335938	322.7109069824219	-569.7265014648439	-352.5762634277344	268.8010864257813	-578.4219360351564	-428.2767944335939	95.75349426269533	-544.4519653320314	-362.7713928222657	97.27232360839847	-614.8842163085939	-469.0478515625001	49.06826400756837	-613.8768310546876	-253.1489562988282	51.78145599365236	-542.9617919921876	-269.1409912109376	55.74701309204103	-498.1546936035157	-331.8822326660157	36.00827026367188	-468.4028320312501	
1836	9.175000000000001	30.20980644226075	1518.703491210938	-1022.832397460938	-111.6870651245117	1632.906372070313	-981.7788696289065	-36.1988868713379	1618.057495117188	-863.1223144531252	-236.8906250000001	1523.456298828125	-869.6370849609377	-399.021697998047	1210.999633789063	-873.4237060546877	-136.3077697753907	1406.294189453125	-891.260192871094	-191.7312469482422	1505.206420898438	-1029.333129882813	-346.0986633300782	1446.803344726563	-1189.688110351563	-321.1433715820313	1404.178466796875	-1209.66943359375	-377.5996093750001	1405.767211914063	-1237.270874023438	-396.1787414550782	1346.172119140625	-1266.190185546875	-464.2320556640626	1344.756591796875	-1207.536499023438	-385.195281982422	1133.166259765625	-1107.089111328125	-365.4710998535157	1088.171264648438	-1165.680419921875	-322.7062377929688	1124.3466796875	-1078.640014648438	-137.5726776123047	1484.097534179688	-726.1235351562501	-249.737289428711	1374.989013671875	-534.9788818359376	-238.6294097900391	1326.785278320313	-535.6298217773439	-285.8179931640626	1327.724487304688	-498.1002502441407	-309.3456420898438	1283.751953125	-482.0087280273439	-381.4310607910157	1301.975219726563	-528.3824462890626	-376.1167602539063	1076.459838867188	-655.8709106445314	-338.0423889160157	1035.287475585938	-599.8795776367189	-315.7859497070313	1074.28564453125	-688.0504760742189	-247.3943023681641	1011.605712890625	-1011.543640136719	-242.7131652832032	998.2058105468752	-754.0099487304689	-418.4981079101564	1109.731811523438	-872.876647949219	-428.2892456054689	1078.85595703125	-901.2991943359377	-425.8865051269532	1076.576904296875	-844.2139282226565	-364.0488281250001	797.3315429687502	-1124.978881835938	-330.2873535156251	721.2817993164064	-1147.542358398438	-283.1188049316407	725.7166748046876	-1146.969970703125	-355.6927185058594	665.7272338867189	-1139.405395507813	-346.1636657714844	512.5818481445314	-1157.540161132813	-287.3788452148438	476.9256286621095	-1038.16796875	-299.5411987304688	345.2767028808594	-1163.526123046875	-365.6021423339844	313.0330810546876	-1214.154174804688	-320.0383605957032	305.6717224121094	-1203.28564453125	-319.7865905761719	222.3332519531251	-1188.117309570313	-392.721649169922	93.61959838867189	-1244.131103515625	-334.0763854980469	95.30135345458986	-1164.720581054688	-441.074432373047	51.50147628784181	-1175.217529296875	-225.4474487304688	54.00763320922853	-1231.774047851563	-235.3191528320313	58.89820861816408	-1280.292358398438	-299.7111816406251	38.55401229858399	-1315.66845703125	-379.4071655273438	726.2587280273439	-653.4578247070314	-345.9774169921876	673.1787719726564	-633.5043334960939	-313.1352844238282	673.6481323242189	-628.4979858398439	-369.5789794921876	593.0837402343751	-644.2493896484376	-380.2342834472657	503.8550720214845	-631.4380493164064	-295.2789001464844	483.4934082031251	-738.0504150390626	-333.5977172851563	396.7740173339845	-599.0387573242189	-416.3657531738282	331.7378845214844	-578.3960571289064	-371.1325378417969	322.7821044921876	-570.1171264648439	-352.9510192871094	268.9160461425782	-578.7557983398439	-428.4033508300782	95.64605712890626	-544.4160156250001	-362.9252624511719	97.24400329589847	-614.8390502929689	-469.0802001953126	49.0089454650879	-613.8009033203126	-253.1689758300782	51.7742156982422	-542.8992309570314	-269.1954040527344	55.73561096191408	-498.0827636718751	-331.8590698242188	35.95862197875977	-468.3590698242189	
1837	9.18	29.53908348083497	1518.793212890625	-1024.008178710938	-112.4039459228516	1632.929321289063	-982.3147583007815	-36.79594039916993	1618.198486328125	-864.0429687500002	-237.4273223876954	1523.52099609375	-869.949157714844	-399.2027893066407	1210.753173828125	-873.1501464843752	-136.7153930664063	1406.453491210938	-891.8477783203127	-192.7866516113282	1505.04248046875	-1029.930419921875	-347.3115234375001	1445.935180664063	-1189.888061523438	-323.0562744140626	1403.222412109375	-1209.693481445313	-378.3756408691407	1404.810546875	-1237.511352539063	-397.223846435547	1345.2158203125	-1266.058837890625	-465.2241516113282	1343.564208984375	-1207.205688476563	-385.7677001953126	1132.163330078125	-1106.858520507813	-365.9904174804688	1087.288940429688	-1165.47412109375	-323.3883972167969	1123.840087890625	-1078.432983398438	-137.73095703125	1484.173461914063	-726.6497802734376	-249.1145477294922	1374.568237304688	-535.3675537109376	-238.2906951904297	1326.634765625	-536.0693969726564	-285.2809753417969	1327.246948242188	-498.4260253906251	-308.7973327636719	1283.309936523438	-482.2658691406251	-380.9332580566407	1301.45654296875	-528.4323730468751	-377.5494079589844	1075.96728515625	-655.0916748046876	-337.3511047363282	1034.747802734375	-599.7801513671876	-315.3200073242188	1073.725341796875	-688.0368041992189	-247.1253967285157	1011.328674316406	-1011.668151855469	-242.172348022461	997.9171142578127	-753.9279174804689	-418.3843078613282	1109.383178710938	-872.4783935546877	-428.2020568847657	1078.538940429688	-900.926940917969	-425.727752685547	1076.200805664063	-843.7863769531252	-364.4766540527344	797.3586425781252	-1124.347290039063	-330.7764892578126	721.0966796875001	-1147.04150390625	-283.7013244628907	725.5155029296876	-1146.6787109375	-356.6212463378907	665.7561645507814	-1138.729370117188	-347.4002075195313	512.4292602539064	-1156.887329101563	-288.6781311035157	476.7503051757814	-1037.563598632813	-300.4094238281251	345.5513610839844	-1163.145385742188	-366.3478393554688	313.0336303710938	-1213.903442382813	-321.3674316406251	305.9226074218751	-1202.761840820313	-320.2678833007813	222.3810272216797	-1187.952880859375	-392.8775329589845	93.56607818603517	-1244.17431640625	-334.1868591308594	95.20195770263673	-1164.766235351563	-441.083709716797	51.44491577148439	-1175.265380859375	-225.4645690917969	54.01304626464845	-1231.806884765625	-235.6694641113282	58.95663452148439	-1280.223754882813	-299.7339782714844	38.49859619140626	-1315.769653320313	-379.2623596191407	726.3622436523439	-653.5595092773439	-345.9657592773438	672.8278808593751	-634.1329956054689	-313.2416992187501	673.2396850585939	-628.8618774414064	-370.2330932617188	593.0998535156251	-644.6954345703126	-381.5374145507813	503.8932189941407	-632.1631469726564	-296.8188171386719	483.292205810547	-739.0929565429689	-334.5235900878907	396.8819885253907	-599.7367553710939	-417.2559814453126	331.7002258300782	-578.7091064453126	-372.1349487304688	322.7828369140626	-570.6138305664064	-353.5249633789063	269.0269775390626	-578.9472045898439	-428.5720520019532	95.54382324218751	-544.3972778320314	-363.1012573242188	97.24018096923831	-614.7946777343751	-469.1768493652345	48.9813575744629	-613.7360229492189	-253.1306762695313	51.80751800537111	-542.8718261718751	-269.1841735839844	55.68733978271486	-498.0338745117189	-331.8966674804688	35.88478469848634	-468.2999267578126	
